# xmcd CD database file
#
# Track frame offsets:
#	150
#	39625
#	66225
#	93100
#	139350
#	249000
#	264300
#	291450
#
# Disc length: 4220 seconds
#
# Revision: 0
# Processed by: cddbd v1.5.2PL0 Copyright (c) Steve Scherf et al.
# Submitted via: CDex 1.51
#
DISCID=71107a08
DTITLE=Tobias Netta - Tobias Netta
DYEAR=1900
DGENRE=Jazz
TTITLE0=Jade
TTITLE1=Litschi-Bubu
TTITLE2=Forbidden Witness
TTITLE3=Aktophasie
TTITLE4=Quasis
TTITLE5=Birds
TTITLE6=Magic Sylph
TTITLE7=Step Thru Me
EXTD=
EXTT0=
EXTT1=
EXTT2=
EXTT3=
EXTT4=
EXTT5=
EXTT6=
EXTT7=
PLAYORDER=
